<?xml version="1.0" standalone="no"?>
<svg viewBox="0 0 200 200" xmlns="http://www.w3.org/2000/svg">
  <path fill="#8B5CF6" d="M36.7,-55.4C50.4,-55.7,66.3,-51.6,66.9,-41.6C67.6,-31.6,53,-15.8,52,-0.6C51,14.6,63.5,29.3,62.8,39.2C62.1,49,48.2,54.2,35.5,58C22.8,61.8,11.4,64.2,0.1,64.1C-11.2,63.9,-22.5,61.2,-36.2,58C-50,54.8,-66.2,51.2,-63.8,41.4C-61.4,31.7,-40.5,15.9,-33.2,4.2C-25.9,-7.4,-32.3,-14.9,-36.2,-27.2C-40,-39.6,-41.4,-56.8,-35,-60.8C-28.5,-64.7,-14.3,-55.2,-1.4,-52.8C11.5,-50.5,23,-55.1,36.7,-55.4Z" transform="translate(100 100)" />
</svg>
